<?xml version="1.0" encoding="UTF-8" standalone="no"?>
<svg width="375px" height="667px" viewBox="0 0 375 667" version="1.1" xmlns="http://www.w3.org/2000/svg" xmlns:xlink="http://www.w3.org/1999/xlink">
    <!-- Generator: Sketch 41.2 (35397) - http://www.bohemiancoding.com/sketch -->
    <title>Sign up</title>
    <desc>Created with Sketch.</desc>
    <defs>
        <filter x="-50%" y="-50%" width="200%" height="200%" filterUnits="objectBoundingBox" id="filter-1">
            <feGaussianBlur stdDeviation="50" in="SourceGraphic"></feGaussianBlur>
        </filter>
    </defs>
    <g id="Page-1" stroke="none" stroke-width="1" fill="none" fill-rule="evenodd">
        <g id="Sign-up">
            <rect id="Rectangle-22-Copy" fill="#722047" x="0" y="0" width="375" height="667"></rect>
            <ellipse id="Oval-10-Copy" fill-opacity="0.2" fill="#D8D8D8" filter="url(#filter-1)" cx="188" cy="111" rx="120" ry="125"></ellipse>
            <rect id="Rectangle-23-Copy" fill="#FFFFFF" opacity="0.1" x="0" y="605" width="375" height="72"></rect>
            <text id="Already-have-an-acco" font-family=".SFNSDisplay-Light, .SF NS Display" font-size="15" font-weight="300" letter-spacing="-0.0250000022" fill="#FFFFFF">
                <tspan x="56.4125098" y="642">Already have an account?</tspan>
                <tspan x="218.41749" y="642" font-size="18" letter-spacing="-0.0300000031"> </tspan>
                <tspan x="222.377725" y="642" font-family=".SFNSDisplay-Regular, .SF NS Display" font-size="18" font-weight="normal" letter-spacing="-0.0300000031">Login here</tspan>
            </text>
            <g id="Group-3-Copy" transform="translate(40.000000, 546.000000)">
                <rect id="Rectangle-Copy-2" fill="#9E9068" x="0" y="0" width="300" height="50" rx="4"></rect>
                <text id="REGISTER" font-family=".SFNSDisplay-Light, .SF NS Display" font-size="18" font-weight="300" letter-spacing="-0.0300000031" fill="#FFFFFF">
                    <tspan x="111.566777" y="32">REGISTER</tspan>
                </text>
            </g>
            <g id="Group-Copy" transform="translate(41.000000, 182.000000)"></g>
            <g id="Group" transform="translate(40.000000, 169.000000)">
                <text id="First-Name" font-family=".SFNSDisplay-Light, .SF NS Display" font-size="15" font-weight="300" letter-spacing="-0.0250000022" fill="#FFFFFF">
                    <tspan x="1.5" y="15">First Name</tspan>
                </text>
                <path d="M0.5,22.5 L299.501672,22.5" id="Line-Copy-2" stroke="#FFFFFF" stroke-linecap="square"></path>
            </g>
            <g id="Group-Copy-10" transform="translate(41.000000, 154.000000)" font-size="8" font-family=".SFNSDisplay-Light, .SF NS Display" letter-spacing="-0.0133333346" fill="#8C8C8C" font-weight="300">
                <text id="First-Name">
                    <tspan x="0.5" y="8">First Name</tspan>
                </text>
            </g>
            <g id="Group-Copy-3" transform="translate(40.000000, 255.000000)">
                <text id="Email-Address" font-family=".SFNSDisplay-Light, .SF NS Display" font-size="15" font-weight="300" letter-spacing="-0.0250000022" fill="#8C8C8C">
                    <tspan x="1.57265626" y="15">Email Address</tspan>
                </text>
                <path d="M0.5,22.5 L299.501672,22.5" id="Line-Copy-2" stroke="#FFFFFF" stroke-linecap="square" opacity="0.5"></path>
            </g>
            <g id="Group-Copy-5" transform="translate(40.000000, 341.000000)">
                <text id="Date-of-Birth" font-family=".SFNSDisplay-Light, .SF NS Display" font-size="15" font-weight="300" letter-spacing="-0.0250000022" fill="#8C8C8C">
                    <tspan x="1.5" y="15">Date of Birth</tspan>
                </text>
                <path d="M0.5,22.5 L299.501672,22.5" id="Line-Copy-2" stroke="#FFFFFF" stroke-linecap="square" opacity="0.5"></path>
            </g>
            <g id="Group-Copy-7" transform="translate(40.000000, 427.000000)">
                <text id="Relationship-Status" font-family=".SFNSDisplay-Light, .SF NS Display" font-size="15" font-weight="300" letter-spacing="-0.0250000022" fill="#8C8C8C">
                    <tspan x="1.5" y="15">Relationship Status</tspan>
                </text>
                <path d="M0.5,22.5 L299.501672,22.5" id="Line-Copy-2" stroke="#FFFFFF" stroke-linecap="square" opacity="0.5"></path>
            </g>
            <g id="Group-Copy-2" transform="translate(40.000000, 212.000000)">
                <text id="Last-Name" font-family=".SFNSDisplay-Light, .SF NS Display" font-size="15" font-weight="300" letter-spacing="-0.0250000022" fill="#8C8C8C">
                    <tspan x="1.5" y="15">Last Name</tspan>
                </text>
                <path d="M0.5,22.5 L299.501672,22.5" id="Line-Copy-2" stroke="#FFFFFF" stroke-linecap="square" opacity="0.5"></path>
            </g>
            <g id="Group-Copy-4" transform="translate(40.000000, 298.000000)">
                <text id="Mobile-Number" font-family=".SFNSDisplay-Light, .SF NS Display" font-size="15" font-weight="300" letter-spacing="-0.0250000022" fill="#8C8C8C">
                    <tspan x="1.5" y="15">Mobile Number</tspan>
                </text>
                <path d="M0.5,22.5 L299.501672,22.5" id="Line-Copy-2" stroke="#FFFFFF" stroke-linecap="square" opacity="0.5"></path>
            </g>
            <g id="Group-Copy-6" transform="translate(40.000000, 384.000000)">
                <text id="Gender" font-family=".SFNSDisplay-Light, .SF NS Display" font-size="15" font-weight="300" letter-spacing="-0.0250000022" fill="#8C8C8C">
                    <tspan x="1.5" y="15">Gender</tspan>
                </text>
                <path d="M0.5,22.5 L299.501672,22.5" id="Line-Copy-2" stroke="#FFFFFF" stroke-linecap="square" opacity="0.5"></path>
            </g>
            <g id="Group-Copy-8" transform="translate(40.000000, 470.000000)">
                <text id="Password" font-family=".SFNSDisplay-Light, .SF NS Display" font-size="15" font-weight="300" letter-spacing="-0.0250000022" fill="#8C8C8C">
                    <tspan x="1.5" y="15">Password</tspan>
                </text>
                <path d="M0.5,22.5 L299.501672,22.5" id="Line-Copy-2" stroke="#FFFFFF" stroke-linecap="square" opacity="0.5"></path>
            </g>
            <g id="Group-Copy-9" transform="translate(40.000000, 513.000000)">
                <text id="Confirm-Password" font-family=".SFNSDisplay-Light, .SF NS Display" font-size="15" font-weight="300" letter-spacing="-0.0250000022" fill="#8C8C8C">
                    <tspan x="1.5" y="15">Confirm Password</tspan>
                </text>
                <path d="M0.5,22.5 L299.501672,22.5" id="Line-Copy-2" stroke="#FFFFFF" stroke-linecap="square" opacity="0.5"></path>
            </g>
            <text id="Sign-Up" font-family=".SFNSDisplay-Light, .SF NS Display" font-size="20" font-weight="300" letter-spacing="-0.0333333351" fill="#FEFEFE">
                <tspan x="152.469206" y="143">Sign Up</tspan>
            </text>
            <g id="signup_malabar_logo" transform="translate(131.000000, 27.000000)" fill="#9E9068">
                <path d="M27.3954774,24.9286432 C27.3954774,12.4904523 37.4788945,2.4080402 49.9160804,2.4080402 C62.3542714,2.4080402 72.4376884,12.4904523 72.4376884,24.9286432 C72.4376884,37.3668342 62.3542714,47.4492462 49.9160804,47.4492462 C37.4788945,47.4492462 27.3954774,37.3668342 27.3954774,24.9286432 M49.9160804,0.00100502513 C36.1492462,0.00100502513 24.9884422,11.161809 24.9884422,24.9286432 C24.9884422,38.6954774 36.1492462,49.8562814 49.9160804,49.8562814 C63.6839196,49.8562814 74.8447236,38.6954774 74.8447236,24.9286432 C74.8447236,11.161809 63.6839196,0.00100502513 49.9160804,0.00100502513" id="Fill-2"></path>
                <path d="M48.3340704,29.041407 C48.3340704,29.9157789 49.0426131,30.6233166 49.9169849,30.6233166 C50.7903518,30.6233166 51.4988945,29.9157789 51.4988945,29.041407 C51.4988945,28.1670352 50.7903518,27.4584925 49.9169849,27.4584925 C49.0426131,27.4584925 48.3340704,28.1670352 48.3340704,29.041407 L48.3340704,29.041407 Z M61.6998995,11.0474372 C61.5893467,11.0474372 61.4858291,11.0916583 61.4094472,11.1670352 L49.8938693,22.6735678 L38.3843216,11.1690452 C38.3079397,11.0926633 38.2034171,11.0474372 38.0908543,11.0474372 L36.4727638,11.0474372 C36.2436181,11.0474372 36.0576884,11.2333668 36.0576884,11.4625126 L36.0576884,38.3941709 C36.0576884,38.6233166 36.2436181,38.8092462 36.4727638,38.8092462 L38.0084422,38.8092462 C38.2375879,38.8092462 38.4235176,38.6233166 38.4235176,38.3941709 L38.4235176,14.5338693 L48.2295477,24.3378894 L45.3320603,27.2353769 C47.2848241,27.2353769 48.6164824,27.2826131 49.8948744,26.0022111 C51.1732663,27.2826131 52.5049246,27.2353769 54.4566834,27.2353769 L51.559196,24.3378894 L61.3682412,14.5228141 L61.3682412,38.3941709 C61.3682412,38.6233166 61.5541709,38.8092462 61.7833166,38.8092462 L63.360201,38.8092462 C63.5893467,38.8092462 63.7752764,38.6233166 63.7752764,38.3941709 L63.7752764,11.4625126 C63.7752764,11.2333668 63.5893467,11.0474372 63.360201,11.0474372 L61.6998995,11.0474372 Z" id="Fill-4"></path>
                <path d="M12.2772864,62.9100503 L11.3838191,62.9100503 C11.3235176,62.9100503 11.2672362,62.940201 11.2330653,62.9904523 L6.26020101,70.3160804 L1.28733668,62.9904523 C1.25316583,62.940201 1.19688442,62.9100503 1.13658291,62.9100503 L0.243115578,62.9100503 C0.142613065,62.9100503 0.0612060302,62.9914573 0.0612060302,63.0919598 L0.0612060302,75.8557789 C0.0612060302,75.9562814 0.142613065,76.0376884 0.243115578,76.0376884 L1.15467337,76.0376884 C1.2561809,76.0376884 1.33758794,75.9562814 1.33758794,75.8557789 L1.33758794,65.3572864 L6.05517588,72.220603 C6.08934673,72.2708543 6.14562814,72.3 6.20592965,72.3 L6.27829146,72.3 C6.33859296,72.3 6.39487437,72.2708543 6.42904523,72.220603 L11.1466332,65.3572864 L11.1466332,75.8557789 C11.1466332,75.9562814 11.2280402,76.0376884 11.3295477,76.0376884 L12.2772864,76.0376884 C12.3777889,76.0376884 12.459196,75.9562814 12.459196,75.8557789 L12.459196,63.0919598 C12.459196,62.9914573 12.3777889,62.9100503 12.2772864,62.9100503" id="Fill-6"></path>
                <path d="M22.9076382,62.9246231 C22.8774874,62.8603015 22.8131658,62.8190955 22.741809,62.8190955 L21.8302513,62.8190955 C21.7598995,62.8190955 21.6945729,62.8603015 21.6654271,62.9246231 L15.7207035,75.7788945 C15.6945729,75.8351759 15.699598,75.9015075 15.7327638,75.9537688 C15.7659296,76.0060302 15.8242211,76.038191 15.8865327,76.038191 L16.8714573,76.038191 C16.9428141,76.038191 17.0071357,75.9959799 17.0372864,75.9306533 L18.6111558,72.4643216 L25.9066332,72.4643216 L27.4805025,75.9306533 C27.5106533,75.9959799 27.5749749,76.038191 27.6473367,76.038191 L28.6865327,76.038191 C28.7488442,76.038191 28.8061307,76.0060302 28.8392965,75.9537688 C28.8734673,75.9015075 28.8774874,75.8351759 28.8513568,75.7788945 L22.9076382,62.9246231 Z M25.339799,71.2422111 L19.178995,71.2422111 L22.2674372,64.480402 L25.339799,71.2422111 Z" id="Fill-8"></path>
                <path d="M40.7370854,74.7980905 L33.4255276,74.7980905 L33.4255276,63.0925628 C33.4255276,62.9920603 33.3441206,62.9096482 33.2436181,62.9096482 L32.2948744,62.9096482 C32.1943719,62.9096482 32.1129648,62.9920603 32.1129648,63.0925628 L32.1129648,75.8553769 C32.1129648,75.9558794 32.1943719,76.0382915 32.2948744,76.0382915 L40.7370854,76.0382915 C40.8375879,76.0382915 40.918995,75.9558794 40.918995,75.8553769 L40.918995,74.98 C40.918995,74.8794975 40.8375879,74.7980905 40.7370854,74.7980905" id="Fill-10"></path>
                <path d="M50.5502513,62.9246231 C50.5201005,62.8603015 50.4557789,62.8190955 50.3844221,62.8190955 L49.4728643,62.8190955 C49.4025126,62.8190955 49.3371859,62.8603015 49.3080402,62.9246231 L43.3633166,75.7788945 C43.3371859,75.8351759 43.3422111,75.9015075 43.3753769,75.9537688 C43.4085427,76.0060302 43.4668342,76.038191 43.5291457,76.038191 L44.5140704,76.038191 C44.5854271,76.038191 44.6497487,75.9959799 44.6798995,75.9306533 L46.2537688,72.4643216 L53.5492462,72.4643216 L55.1231156,75.9306533 C55.1532663,75.9959799 55.2175879,76.038191 55.2899497,76.038191 L56.3291457,76.038191 C56.3904523,76.038191 56.4487437,76.0060302 56.4829146,75.9537688 C56.5160804,75.9015075 56.5201005,75.8351759 56.4939698,75.7788945 L50.5502513,62.9246231 Z M52.9824121,71.2422111 L46.821608,71.2422111 L49.9100503,64.480402 L52.9824121,71.2422111 Z" id="Fill-12"></path>
                <path d="M67.6904523,69.2547739 C68.6100503,68.7703518 69.5286432,67.8809045 69.5286432,66.2648241 L69.5286432,66.2286432 C69.5286432,64.2125628 67.8321608,62.9100503 65.2070352,62.9100503 L59.9376884,62.9100503 C59.8371859,62.9100503 59.7557789,62.9914573 59.7557789,63.0919598 L59.7557789,75.8557789 C59.7557789,75.9562814 59.8371859,76.0376884 59.9376884,76.0376884 L65.480402,76.0376884 C68.3718593,76.0376884 70.240201,74.5994975 70.240201,72.3733668 L70.240201,72.3361809 C70.240201,70.8768844 69.360804,69.818593 67.6904523,69.2547739 M65.5175879,74.7984925 L61.0683417,74.7984925 L61.0683417,70.0396985 L65.2070352,70.0396985 C67.5939698,70.0396985 68.9085427,70.8547739 68.9085427,72.3361809 L68.9085427,72.3733668 C68.9085427,73.8688442 67.6090452,74.7984925 65.5175879,74.7984925 M65.0974874,68.7994975 L61.0683417,68.7994975 L61.0683417,64.1502513 L65.1889447,64.1502513 C67.0723618,64.1502513 68.1979899,64.9613065 68.1979899,66.3201005 L68.1979899,66.3562814 C68.1979899,67.8628141 67.0100503,68.7994975 65.0974874,68.7994975" id="Fill-14"></path>
                <path d="M79.8091457,62.9246231 C79.778995,62.8603015 79.7146734,62.8190955 79.6433166,62.8190955 L78.7317588,62.8190955 C78.660402,62.8190955 78.5960804,62.8603015 78.5669347,62.9246231 L72.6222111,75.7788945 C72.5960804,75.8351759 72.6011055,75.9015075 72.6342714,75.9537688 C72.6674372,76.0060302 72.7257286,76.038191 72.7880402,76.038191 L73.7729648,76.038191 C73.8443216,76.038191 73.9086432,75.9959799 73.938794,75.9306533 L75.5126633,72.4643216 L82.8081407,72.4643216 L84.3820101,75.9306533 C84.4121608,75.9959799 84.4764824,76.038191 84.5488442,76.038191 L85.5880402,76.038191 C85.6493467,76.038191 85.7076382,76.0060302 85.741809,75.9537688 C85.7749749,75.9015075 85.778995,75.8351759 85.7528643,75.7788945 L79.8091457,62.9246231 Z M82.2413065,71.2422111 L76.0805025,71.2422111 L79.1689447,64.480402 L82.2413065,71.2422111 Z" id="Fill-16"></path>
                <path d="M99.7339698,75.7441206 L95.7098492,70.5360804 C97.9641206,70.1300503 99.2977889,68.7340704 99.2977889,66.7571859 L99.2977889,66.721005 C99.2977889,64.441608 97.3932663,62.9099497 94.5570854,62.9099497 L89.1972864,62.9099497 C89.0957789,62.9099497 89.0143719,62.9913568 89.0143719,63.0918593 L89.0143719,75.8556784 C89.0143719,75.9561809 89.0957789,76.0375879 89.1972864,76.0375879 L90.1450251,76.0375879 C90.2455276,76.0375879 90.3269347,75.9561809 90.3269347,75.8556784 L90.3269347,70.7501508 L94.2304523,70.7501508 L98.2415075,75.9662312 C98.2766834,76.0114573 98.3299497,76.0375879 98.3862312,76.0375879 L99.5902513,76.0375879 C99.659598,76.0375879 99.7229146,75.998392 99.7530653,75.9360804 C99.7842211,75.8737688 99.7761809,75.799397 99.7339698,75.7441206 L99.7339698,75.7441206 Z M90.3269347,64.1501508 L94.5028141,64.1501508 C96.6837186,64.1501508 97.9852261,65.1250251 97.9852261,66.7571859 L97.9852261,66.7933668 C97.9852261,68.4546734 96.5972864,69.5290452 94.4475377,69.5290452 L90.3269347,69.5290452 L90.3269347,64.1501508 Z" id="Fill-18"></path>
                <path d="M6.09829146,83.9890452 L3.40482412,83.9890452 C3.35457286,83.9890452 3.31336683,84.0302513 3.31336683,84.0805025 L3.31336683,84.5357789 C3.31336683,84.5860302 3.35457286,84.6262312 3.40482412,84.6262312 L5.53246231,84.6262312 L5.53246231,86.3990955 C5.10432161,86.7468342 4.35859296,87.1086432 3.50934673,87.1086432 C1.86211055,87.1086432 0.755577889,85.941809 0.755577889,84.2041206 L0.755577889,84.1850251 C0.755577889,82.5709548 1.91939698,81.3076382 3.40482412,81.3076382 C4.45105528,81.3076382 5.04,81.698593 5.47919598,82.0815075 C5.49728643,82.0975879 5.51939698,82.1046231 5.54452261,82.1036181 C5.56864322,82.1026131 5.59175879,82.0915578 5.6078392,82.0724623 L5.93045226,81.7026131 C5.94653266,81.6845226 5.95457286,81.660402 5.95256281,81.6352764 C5.95055276,81.6111558 5.93849246,81.5880402 5.91939698,81.5729648 C5.15356784,80.9377889 4.43296482,80.6794975 3.43396985,80.6794975 C1.32241206,80.6794975 0.0611055276,82.4714573 0.0611055276,84.2041206 L0.0611055276,84.2222111 C0.0611055276,86.2865327 1.47115578,87.7277387 3.49025126,87.7277387 C4.8641206,87.7277387 5.81386935,87.0151759 6.15859296,86.7086432 C6.17869347,86.6915578 6.18974874,86.6664322 6.18974874,86.6413065 L6.18974874,84.0805025 C6.18974874,84.0302513 6.14854271,83.9890452 6.09829146,83.9890452" id="Fill-20"></path>
                <path d="M11.4087437,80.679397 C9.2559799,80.679397 7.96954774,82.4713568 7.96954774,84.2040201 L7.96954774,84.2221106 C7.96954774,86.2211055 9.4398995,87.7276382 11.3896482,87.7276382 C13.5313568,87.7276382 14.8157789,85.9527638 14.8288442,84.2291457 C14.8378894,84.2060302 14.8378894,84.1819095 14.8288442,84.158794 C14.8157789,82.1738693 13.3504523,80.679397 11.4087437,80.679397 M11.4087437,87.0994975 C9.87005025,87.0994975 8.6640201,85.8271357 8.6640201,84.2040201 L8.6640201,84.1849246 C8.6640201,82.5447236 9.8358794,81.3075377 11.3896482,81.3075377 C12.9283417,81.3075377 14.1343719,82.5798995 14.1343719,84.2040201 L14.1343719,84.2221106 C14.1343719,85.8623116 12.9625126,87.0994975 11.4087437,87.0994975" id="Fill-22"></path>
                <path d="M21.2805025,86.9763819 L17.4744724,86.9763819 L17.4744724,80.8839196 C17.4744724,80.8336683 17.4332663,80.7934673 17.3830151,80.7934673 L16.8895477,80.7934673 C16.8392965,80.7934673 16.7980905,80.8336683 16.7980905,80.8839196 L16.7980905,87.5231156 C16.7980905,87.5733668 16.8392965,87.6135678 16.8895477,87.6135678 L21.2805025,87.6135678 C21.3307538,87.6135678 21.3719598,87.5733668 21.3719598,87.5231156 L21.3719598,87.0678392 C21.3719598,87.0175879 21.3307538,86.9763819 21.2805025,86.9763819" id="Fill-24"></path>
                <path d="M25.4435176,80.7931658 L23.2334673,80.7931658 C23.1832161,80.7931658 23.1430151,80.8343719 23.1430151,80.8846231 L23.1430151,87.5228141 C23.1430151,87.5730653 23.1832161,87.6142714 23.2334673,87.6142714 L25.4435176,87.6142714 C27.541005,87.6142714 29.0626131,86.1801005 29.0626131,84.2032161 L29.0626131,84.1841206 C29.0626131,82.2192965 27.541005,80.7931658 25.4435176,80.7931658 M25.4435176,86.9760804 L23.818392,86.9760804 L23.818392,81.4303518 L25.4435176,81.4303518 C27.1379899,81.4303518 28.3681407,82.5971859 28.3681407,84.2032161 L28.3681407,84.2223116 C28.3681407,85.8444221 27.1651256,86.9760804 25.4435176,86.9760804" id="Fill-26"></path>
                <path d="M37.8737688,86.0636181 C38.198392,85.6153769 38.5099497,85.0515578 38.8245226,84.3450251 C38.8345729,84.3219095 38.8345729,84.2967839 38.8255276,84.2736683 C38.8164824,84.2505528 38.798392,84.2324623 38.7752764,84.2234171 L38.3290452,84.0435176 C38.2828141,84.0244221 38.2305528,84.0465327 38.2114573,84.0927638 C37.9561809,84.6957789 37.6968844,85.1892462 37.4205025,85.5972864 L35.8516583,83.9852261 C36.8998995,83.5922613 37.4094472,83.0143719 37.4094472,82.221407 C37.4094472,81.3570854 36.6988945,80.6796985 35.7913568,80.6796985 C34.7933668,80.6796985 34.040603,81.3711558 34.040603,82.2877387 C34.040603,82.8666332 34.2868342,83.2837186 34.7159799,83.7761809 C33.6345729,84.2083417 33.0637186,84.8947739 33.0637186,85.7681407 C33.0637186,86.8927638 33.960201,87.7088442 35.1943719,87.7088442 C36.0446231,87.7088442 36.7813065,87.3470352 37.4446231,86.6043216 L38.5240201,87.7188945 C38.5411055,87.7369849 38.5652261,87.7470352 38.5893467,87.7470352 C38.6094472,87.7470352 38.6305528,87.74 38.6476382,87.7259296 L39.0365829,87.4033166 C39.0556784,87.3872362 39.0677387,87.3631156 39.0687437,87.3379899 C39.0707538,87.3128643 39.0607035,87.2877387 39.0436181,87.2696482 L37.8737688,86.0636181 Z M35.7722613,81.2786935 C36.321005,81.2786935 36.7340704,81.6927638 36.7340704,82.2405025 C36.7340704,82.820402 36.3039196,83.2455276 35.4205025,83.538995 C34.881809,82.9601005 34.7159799,82.658593 34.7159799,82.2686432 C34.7159799,81.6947739 35.160201,81.2786935 35.7722613,81.2786935 L35.7722613,81.2786935 Z M35.2034171,87.099799 C34.3551759,87.099799 33.7390955,86.5319598 33.7390955,85.7490452 C33.7390955,85.0877387 34.2365829,84.5470352 35.1411055,84.2234171 L37.0054271,86.1510553 C36.4476382,86.780201 35.841608,87.099799 35.2034171,87.099799 L35.2034171,87.099799 Z" id="Fill-28"></path>
                <path d="M45.5138693,80.7931658 L43.3038191,80.7931658 C43.2535678,80.7931658 43.2133668,80.8343719 43.2133668,80.8846231 L43.2133668,87.5228141 C43.2133668,87.5730653 43.2535678,87.6142714 43.3038191,87.6142714 L45.5138693,87.6142714 C47.6113568,87.6142714 49.1329648,86.1801005 49.1329648,84.2032161 L49.1329648,84.1841206 C49.1329648,82.2192965 47.6113568,80.7931658 45.5138693,80.7931658 M45.5138693,86.9760804 L43.8887437,86.9760804 L43.8887437,81.4303518 L45.5138693,81.4303518 C47.2083417,81.4303518 48.4384925,82.5971859 48.4384925,84.2032161 L48.4384925,84.2223116 C48.4384925,85.8444221 47.2354774,86.9760804 45.5138693,86.9760804" id="Fill-30"></path>
                <path d="M51.7535678,80.7931658 L51.2601005,80.7931658 C51.2098492,80.7931658 51.1686432,80.8343719 51.1686432,80.8846231 L51.1686432,87.5228141 C51.1686432,87.5730653 51.2098492,87.6142714 51.2601005,87.6142714 L51.7535678,87.6142714 C51.8038191,87.6142714 51.8450251,87.5730653 51.8450251,87.5228141 L51.8450251,80.8846231 C51.8450251,80.8343719 51.8038191,80.7931658 51.7535678,80.7931658" id="Fill-32"></path>
                <path d="M57.3461307,80.7986935 C57.3310553,80.7665327 57.2988945,80.7454271 57.2637186,80.7454271 L56.7893467,80.7454271 C56.7531658,80.7454271 56.721005,80.7665327 56.7059296,80.7986935 L53.6144724,87.4841206 C53.601407,87.5122613 53.6044221,87.5454271 53.6205025,87.5715578 C53.6375879,87.5976884 53.6667337,87.6137688 53.6978894,87.6137688 L54.2094472,87.6137688 C54.2456281,87.6137688 54.2777889,87.5926633 54.2928643,87.5605025 L55.1129648,85.7554774 L58.9119598,85.7554774 L59.7310553,87.5605025 C59.7461307,87.5926633 59.7782915,87.6137688 59.8144724,87.6137688 L60.3551759,87.6137688 C60.3863317,87.6137688 60.4154774,87.5976884 60.4315578,87.5715578 C60.4486432,87.5454271 60.4506533,87.5122613 60.4375879,87.4841206 L57.3461307,80.7986935 Z M58.6205025,85.1273367 L55.4044221,85.1273367 L57.0164824,81.5976884 L58.6205025,85.1273367 Z" id="Fill-34"></path>
                <path d="M68.4911558,80.7931658 L68.0268342,80.7931658 C67.9966834,80.7931658 67.9685427,80.8082412 67.9514573,80.8333668 L65.3615075,84.6484422 L62.7725628,80.8333668 C62.7554774,80.8082412 62.7273367,80.7931658 62.6961809,80.7931658 L62.2318593,80.7931658 C62.181608,80.7931658 62.141407,80.8343719 62.141407,80.8846231 L62.141407,87.5228141 C62.141407,87.5730653 62.181608,87.6142714 62.2318593,87.6142714 L62.7062312,87.6142714 C62.7564824,87.6142714 62.7976884,87.5730653 62.7976884,87.5228141 L62.7976884,82.0504523 L65.2579899,85.6303518 C65.2750754,85.6554774 65.3032161,85.6695477 65.3333668,85.6695477 L65.3715578,85.6695477 C65.4017085,85.6695477 65.4288442,85.6554774 65.4469347,85.6303518 L67.9072362,82.0504523 L67.9072362,87.5228141 C67.9072362,87.5730653 67.9474372,87.6142714 67.9976884,87.6142714 L68.4911558,87.6142714 C68.541407,87.6142714 68.5826131,87.5730653 68.5826131,87.5228141 L68.5826131,80.8846231 C68.5826131,80.8343719 68.541407,80.7931658 68.4911558,80.7931658" id="Fill-36"></path>
                <path d="M73.9914573,80.679397 C71.8386935,80.679397 70.5522613,82.4713568 70.5522613,84.2040201 L70.5522613,84.2221106 C70.5522613,86.2211055 72.0226131,87.7276382 73.9723618,87.7276382 C76.1140704,87.7276382 77.3984925,85.9527638 77.4115578,84.2291457 C77.420603,84.2060302 77.420603,84.1819095 77.4115578,84.158794 C77.3984925,82.1738693 75.9321608,80.679397 73.9914573,80.679397 M73.9914573,87.0994975 C72.4527638,87.0994975 71.2467337,85.8271357 71.2467337,84.2040201 L71.2467337,84.1849246 C71.2467337,82.5447236 72.418593,81.3075377 73.9723618,81.3075377 C75.5110553,81.3075377 76.7170854,82.5798995 76.7170854,84.2040201 L76.7170854,84.2221106 C76.7170854,85.8623116 75.5452261,87.0994975 73.9914573,87.0994975" id="Fill-38"></path>
                <path d="M84.9918593,80.7931658 L84.5174874,80.7931658 C84.4672362,80.7931658 84.4260302,80.8343719 84.4260302,80.8846231 L84.4260302,86.398191 L80.0089447,80.8273367 C79.9908543,80.8062312 79.9647236,80.7931658 79.9365829,80.7931658 L79.4722613,80.7931658 C79.4220101,80.7931658 79.380804,80.8343719 79.380804,80.8846231 L79.380804,87.5228141 C79.380804,87.5730653 79.4220101,87.6142714 79.4722613,87.6142714 L79.9466332,87.6142714 C79.9968844,87.6142714 80.0380905,87.5730653 80.0380905,87.5228141 L80.0380905,81.8856281 L84.5506533,87.5790955 C84.5677387,87.601206 84.5938693,87.6142714 84.6220101,87.6142714 L84.9918593,87.6142714 C85.0421106,87.6142714 85.0833166,87.5730653 85.0833166,87.5228141 L85.0833166,80.8846231 C85.0833166,80.8343719 85.0421106,80.7931658 84.9918593,80.7931658" id="Fill-40"></path>
                <path d="M89.6474372,80.7931658 L87.438392,80.7931658 C87.3871357,80.7931658 87.3469347,80.8343719 87.3469347,80.8846231 L87.3469347,87.5228141 C87.3469347,87.5730653 87.3871357,87.6142714 87.438392,87.6142714 L89.6474372,87.6142714 C91.7449246,87.6142714 93.2665327,86.1801005 93.2665327,84.2032161 L93.2665327,84.1841206 C93.2665327,82.2192965 91.7449246,80.7931658 89.6474372,80.7931658 M89.6474372,86.9760804 L88.0223116,86.9760804 L88.0223116,81.4303518 L89.6474372,81.4303518 C91.3419095,81.4303518 92.5720603,82.5971859 92.5720603,84.2032161 L92.5720603,84.2223116 C92.5720603,85.8444221 91.3700503,86.9760804 89.6474372,86.9760804" id="Fill-42"></path>
                <path d="M97.5180905,83.8676382 C95.9532663,83.5470352 95.6567839,83.1420101 95.6567839,82.5058291 L95.6567839,82.4867337 C95.6567839,81.8143719 96.3,81.3259296 97.1864322,81.3259296 C97.9341709,81.3259296 98.5271357,81.5510553 99.1090452,82.0535678 C99.1281407,82.0696482 99.1522613,82.0776884 99.1773869,82.0756784 C99.2015075,82.0726633 99.2246231,82.060603 99.2396985,82.0415075 L99.5522613,81.6525628 C99.5683417,81.6334673 99.5753769,81.6103518 99.5723618,81.5862312 C99.5693467,81.5621106 99.5572864,81.54 99.539196,81.5249246 C98.8075377,80.9379899 98.1321608,80.698794 97.2055276,80.698794 C95.9371859,80.698794 94.980402,81.4877387 94.980402,82.5349749 L94.980402,82.5530653 C94.980402,83.6113568 95.6497487,84.179196 97.2919598,84.5108543 C98.8085427,84.8163819 99.0959799,85.2113568 99.0959799,85.8344724 L99.0959799,85.8535678 C99.0959799,86.5761809 98.4437186,87.0807035 97.5090452,87.0807035 C96.5914573,87.0807035 95.941206,86.8113568 95.1904523,86.1188945 C95.1723618,86.101809 95.1482412,86.0927638 95.1241206,86.0947739 C95.098995,86.0957789 95.0758794,86.1068342 95.059799,86.1259296 L94.738191,86.4957789 C94.7050251,86.5329648 94.7080402,86.5902513 94.7452261,86.6234171 C95.5864322,87.3741709 96.4296482,87.7088442 97.4809045,87.7088442 C98.8296482,87.7088442 99.7723618,86.9269347 99.7723618,85.8063317 L99.7723618,85.7872362 C99.7723618,84.7631156 99.0979899,84.1892462 97.5180905,83.8676382" id="Fill-44"></path>
            </g>
        </g>
    </g>
</svg>