<?xml version="1.0" encoding="UTF-8" standalone="no"?>
<svg width="375px" height="667px" viewBox="0 0 375 667" version="1.1" xmlns="http://www.w3.org/2000/svg" xmlns:xlink="http://www.w3.org/1999/xlink">
    <!-- Generator: Sketch 41.2 (35397) - http://www.bohemiancoding.com/sketch -->
    <title>Sign in</title>
    <desc>Created with Sketch.</desc>
    <defs>
        <rect id="path-1" x="0" y="0" width="300" height="50" rx="4"></rect>
        <mask id="mask-2" maskContentUnits="userSpaceOnUse" maskUnits="objectBoundingBox" x="0" y="0" width="300" height="50" fill="white">
            <use xlink:href="#path-1"></use>
        </mask>
    </defs>
    <g id="Page-1" stroke="none" stroke-width="1" fill="none" fill-rule="evenodd">
        <g id="Sign-in">
            <rect id="Rectangle-22" fill="#722047" x="0" y="0" width="375" height="667"></rect>
            <rect id="Rectangle-23" fill="#FFFFFF" opacity="0.1" x="0" y="605" width="375" height="62"></rect>
            <text id="Hello" font-family="GothamHTF-Book, Gotham HTF" font-size="30" font-weight="300" letter-spacing="-0.0500000045" fill="#FEFEFE">
                <tspan x="149.835313" y="241">Hello</tspan>
            </text>
            <g id="Group" transform="translate(38.000000, 296.000000)" font-size="14" font-family="GothamHTF-Light, Gotham HTF" letter-spacing="-0.0233333353" fill="#FFFFFF" font-weight="300">
                <text id="mymail@gmail.com">
                    <tspan x="0" y="13">mymail@gmail.com</tspan>
                </text>
            </g>
            <g id="Group-Copy" transform="translate(39.000000, 279.000000)" font-size="8" font-family="GothamHTF-Light, Gotham HTF" letter-spacing="-0.0133333346" fill="#8C8C8C" font-weight="300">
                <text id="Email-Address">
                    <tspan x="0.5" y="7">Email Address</tspan>
                </text>
            </g>
            <g id="Group-2" transform="translate(37.000000, 352.000000)" font-size="14" font-family="GothamHTF-Light, Gotham HTF" letter-spacing="-0.0233333353" fill="#8C8C8C" font-weight="300">
                <text id="Password">
                    <tspan x="2.85933334" y="13">Password</tspan>
                </text>
            </g>
            <g id="Group-3" transform="translate(38.000000, 402.000000)">
                <use id="Rectangle-Copy-2" stroke="#9E9068" mask="url(#mask-2)" xlink:href="#path-1"></use>
                <text id="LOGIN" opacity="0.5" font-family="GothamHTF-Book, Gotham HTF" font-size="18" font-weight="300" letter-spacing="-0.0300000031" fill="#FFFFFF">
                    <tspan x="120.429" y="32">LOGIN</tspan>
                </text>
            </g>
            <text id="Don’t-have-an-accoun" font-family="GothamHTF-Light, Gotham HTF" font-size="14" font-weight="300" letter-spacing="-0.0233333353" fill="#FFFFFF">
                <tspan x="61.2183334" y="643">Don’t have an account?</tspan>
                <tspan x="222.279" y="643" font-family="GothamHTF-Medium, Gotham HTF" font-weight="400"> Sign up here</tspan>
            </text>
            <text id="Forgot-password?-Get" font-family="GothamHTF-Light, Gotham HTF" font-size="14" font-weight="300" letter-spacing="-0.0233333353" fill="#FFFFFF">
                <tspan x="56.0168149" y="531">Forgot password?</tspan>
                <tspan x="180.299481" y="531" font-family="GothamHTF-Book, Gotham HTF"> </tspan>
                <tspan x="184.476148" y="531" font-family="GothamHTF-Medium, Gotham HTF" font-weight="400" letter-spacing="-0.0181481503">Get help signing in.</tspan>
            </text>
            <path d="M38.5,314.5 L337.501672,314.5" id="Line" stroke="#FFFFFF" stroke-linecap="square"></path>
            <path d="M38.5,371.5 L337.501672,371.5" id="Line-Copy" stroke="#FFFFFF" stroke-linecap="square" opacity="0.5"></path>
            <g id="logo" transform="translate(58.000000, 84.000000)" fill="#FFFFFF">
                <path d="M3.13174699,32.435 C3.13174699,16.2515663 16.2515663,3.13174699 32.435,3.13174699 C48.6192169,3.13174699 61.738253,16.2515663 61.738253,32.435 C61.738253,48.6192169 48.6192169,61.738253 32.435,61.738253 C16.2515663,61.738253 3.13174699,48.6192169 3.13174699,32.435 M32.435,0 C14.5216265,0 0,14.5216265 0,32.435 C0,50.3491566 14.5216265,64.87 32.435,64.87 C50.3483735,64.87 64.87,50.3491566 64.87,32.435 C64.87,14.5216265 50.3483735,0 32.435,0" id="Fill-1"></path>
                <path d="M30.3762229,37.7865361 C30.3762229,38.9236446 31.2979699,39.8453916 32.4366446,39.8453916 C33.5721867,39.8453916 34.4939337,38.9236446 34.4939337,37.7865361 C34.4939337,36.6494277 33.5721867,35.7268976 32.4366446,35.7268976 C31.2979699,35.7268976 30.3762229,36.6494277 30.3762229,37.7865361 L30.3762229,37.7865361 Z M47.767247,14.374006 C47.6231506,14.374006 47.4884518,14.4311747 47.388994,14.5290663 L32.4061024,29.5002108 L17.430259,14.5321988 C17.3308012,14.432741 17.1945361,14.374006 17.0488735,14.374006 L14.9430301,14.374006 C14.6446566,14.374006 14.4026687,14.615994 14.4026687,14.9135843 L14.4026687,49.9564157 C14.4026687,50.254006 14.6446566,50.495994 14.9430301,50.495994 L16.9408012,50.495994 C17.2391747,50.495994 17.4803795,50.254006 17.4803795,49.9564157 L17.4803795,18.9099096 L30.2399578,31.6663554 L26.4699578,35.4363554 C29.0104398,35.4363554 30.743512,35.4974398 32.4068855,33.8325 C34.070259,35.4974398 35.8025482,35.4363554 38.3430301,35.4363554 L34.572247,31.6663554 L47.335741,18.8958133 L47.335741,49.9564157 C47.335741,50.254006 47.5777289,50.495994 47.8761024,50.495994 L49.9279096,50.495994 C50.2255,50.495994 50.467488,50.254006 50.467488,49.9564157 L50.467488,14.9135843 C50.467488,14.615994 50.2255,14.374006 49.9279096,14.374006 L47.767247,14.374006 Z" id="Fill-3"></path>
                <path d="M108.552193,10.9699639 L107.002373,10.9699639 C106.897434,10.9699639 106.799542,11.0216506 106.740024,11.1085783 L98.1138193,23.8188193 L89.4868313,11.1085783 C89.4273133,11.0216506 89.3294217,10.9699639 89.2244819,10.9699639 L87.6746627,10.9699639 C87.5000241,10.9699639 87.3582771,11.1117108 87.3582771,11.2863494 L87.3582771,33.4286386 C87.3582771,33.6032771 87.5000241,33.7450241 87.6746627,33.7450241 L89.2565904,33.7450241 C89.4312289,33.7450241 89.5729759,33.6032771 89.5729759,33.4286386 L89.5729759,15.2153253 L97.757494,27.1236386 C97.817012,27.209 97.9141205,27.2606867 98.0182771,27.2606867 L98.1451446,27.2606867 C98.2493012,27.2606867 98.3464096,27.209 98.4059277,27.1236386 L106.591229,15.2153253 L106.591229,33.4286386 C106.591229,33.6032771 106.732976,33.7450241 106.907614,33.7450241 L108.552193,33.7450241 C108.726831,33.7450241 108.868578,33.6032771 108.868578,33.4286386 L108.868578,11.2863494 C108.868578,11.1117108 108.726831,10.9699639 108.552193,10.9699639" id="Fill-5"></path>
                <path d="M126.994416,10.9951807 C126.942729,10.8831928 126.830741,10.8119277 126.707006,10.8119277 L125.125861,10.8119277 C125.00291,10.8119277 124.890139,10.8831928 124.838452,10.9951807 L114.526163,33.2956627 C114.481524,33.3943373 114.489355,33.5078916 114.547307,33.5995181 C114.605259,33.6903614 114.7055,33.7451807 114.813572,33.7451807 L116.521584,33.7451807 C116.646102,33.7451807 116.758873,33.6723494 116.809777,33.5595783 L119.54056,27.5451205 L132.197548,27.5451205 L134.928331,33.5595783 C134.980018,33.6723494 135.092789,33.7451807 135.217307,33.7451807 L137.019295,33.7451807 C137.127367,33.7451807 137.227608,33.6903614 137.28556,33.5995181 C137.344295,33.5078916 137.352127,33.3943373 137.306705,33.2956627 L126.994416,10.9951807 Z M131.213934,25.4259639 L120.524958,25.4259639 L125.883934,13.6938554 L131.213934,25.4259639 Z" id="Fill-7"></path>
                <path d="M157.927054,31.5941506 L145.242657,31.5941506 L145.242657,11.2859578 C145.242657,11.1113193 145.10091,10.9695723 144.925488,10.9695723 L143.28091,10.9695723 C143.106271,10.9695723 142.965307,11.1113193 142.965307,11.2859578 L142.965307,33.4290301 C142.965307,33.6036687 143.106271,33.7454157 143.28091,33.7454157 L157.927054,33.7454157 C158.101693,33.7454157 158.242657,33.6036687 158.242657,33.4290301 L158.242657,31.9105361 C158.242657,31.7358976 158.101693,31.5941506 157.927054,31.5941506" id="Fill-9"></path>
                <path d="M174.951729,10.9951807 C174.900042,10.8831928 174.787271,10.8119277 174.664319,10.8119277 L173.082392,10.8119277 C172.958657,10.8119277 172.846669,10.8831928 172.794982,10.9951807 L162.482693,33.2956627 C162.438054,33.3943373 162.445102,33.5078916 162.503837,33.5995181 C162.562572,33.6903614 162.662813,33.7451807 162.770102,33.7451807 L164.478898,33.7451807 C164.602633,33.7451807 164.716187,33.6723494 164.766307,33.5595783 L167.49709,27.5451205 L180.154861,27.5451205 L182.885645,33.5595783 C182.936548,33.6723494 183.049319,33.7451807 183.173054,33.7451807 L184.976608,33.7451807 C185.083898,33.7451807 185.184139,33.6903614 185.243657,33.5995181 C185.301608,33.5078916 185.30944,33.3943373 185.264018,33.2956627 L174.951729,10.9951807 Z M179.171247,25.4259639 L168.481488,25.4259639 L173.840464,13.6938554 L179.171247,25.4259639 Z" id="Fill-11"></path>
                <path d="M204.687036,21.9770482 C206.28306,21.1359639 207.875952,19.5939759 207.875952,16.7903614 L207.875952,16.7269277 C207.875952,13.2294578 204.93294,10.9693373 200.379024,10.9693373 L191.237518,10.9693373 C191.06288,10.9693373 190.921133,11.1110843 190.921133,11.2857229 L190.921133,33.4287952 C190.921133,33.6042169 191.06288,33.7451807 191.237518,33.7451807 L200.853602,33.7451807 C205.869566,33.7451807 209.110169,31.2493373 209.110169,27.3869277 L209.110169,27.323494 C209.110169,24.7908434 207.58541,22.9551807 204.687036,21.9770482 M200.917819,31.5939157 L193.198482,31.5939157 L193.198482,23.3381325 L200.379024,23.3381325 C204.520229,23.3381325 206.800711,24.753253 206.800711,27.323494 L206.800711,27.3869277 C206.800711,29.9822289 204.546072,31.5939157 200.917819,31.5939157 M200.189506,21.1868675 L193.198482,21.1868675 L193.198482,13.1206024 L200.347699,13.1206024 C203.615711,13.1206024 205.566494,14.5278916 205.566494,16.8851205 L205.566494,16.9485542 C205.566494,19.5626506 203.506072,21.1868675 200.189506,21.1868675" id="Fill-13"></path>
                <path d="M225.712343,10.9951807 C225.660657,10.8831928 225.548669,10.8119277 225.425717,10.8119277 L223.843006,10.8119277 C223.720054,10.8119277 223.607283,10.8831928 223.55638,10.9951807 L213.24409,33.2956627 C213.198669,33.3943373 213.205717,33.5078916 213.264452,33.5995181 C213.323187,33.6903614 213.423428,33.7451807 213.530717,33.7451807 L215.239512,33.7451807 C215.363247,33.7451807 215.476018,33.6723494 215.527705,33.5595783 L218.257705,27.5451205 L230.915476,27.5451205 L233.646259,33.5595783 C233.697163,33.6723494 233.809934,33.7451807 233.934452,33.7451807 L235.737223,33.7451807 C235.844512,33.7451807 235.944753,33.6903614 236.004271,33.5995181 C236.062223,33.5078916 236.070054,33.3943373 236.024633,33.2956627 L225.712343,10.9951807 Z M229.931861,25.4259639 L219.242102,25.4259639 L224.601861,13.6938554 L229.931861,25.4259639 Z" id="Fill-15"></path>
                <path d="M260.278795,33.2353614 L253.297952,24.1995783 C257.207349,23.4955422 259.522289,21.0748795 259.522289,17.6439759 L259.522289,17.5805422 C259.522289,13.626506 256.21747,10.9701205 251.297831,10.9701205 L241.998133,10.9701205 C241.824277,10.9701205 241.681747,11.1110843 241.681747,11.2857229 L241.681747,33.4287952 C241.681747,33.6042169 241.824277,33.7451807 241.998133,33.7451807 L243.642711,33.7451807 C243.817349,33.7451807 243.959096,33.6042169 243.959096,33.4287952 L243.959096,24.5715663 L250.731627,24.5715663 L257.689759,33.6214458 C257.75006,33.699759 257.843253,33.7451807 257.941928,33.7451807 L260.029759,33.7451807 C260.148795,33.7451807 260.26,33.6762651 260.31247,33.5681928 C260.365723,33.4601205 260.353193,33.3309036 260.278795,33.2353614 L260.278795,33.2353614 Z M243.959096,13.1206024 L251.203072,13.1206024 C254.986386,13.1206024 257.24494,14.8113855 257.24494,17.6439759 L257.24494,17.7074096 C257.24494,20.5901205 254.836024,22.4524096 251.108313,22.4524096 L243.959096,22.4524096 L243.959096,13.1206024 Z" id="Fill-17"></path>
                <path d="M97.8326747,47.539747 L93.160506,47.539747 C93.0727952,47.539747 93.0023133,47.6102289 93.0023133,47.6971566 L93.0023133,48.4873373 C93.0023133,48.5742651 93.0727952,48.644747 93.160506,48.644747 L96.8521928,48.644747 L96.8521928,51.7201084 C96.1082169,52.3239036 94.8152651,52.9519759 93.3414096,52.9519759 C90.483759,52.9519759 88.5635181,50.926012 88.5635181,47.9117349 L88.5635181,47.8788434 C88.5635181,45.0791446 90.5824337,42.8879398 93.160506,42.8879398 C94.974241,42.8879398 95.997012,43.5669157 96.7582169,44.2294458 C96.7895422,44.2584217 96.8286988,44.2693855 96.8725542,44.2686024 C96.9148434,44.2654699 96.9532169,44.2466747 96.9814096,44.2153494 L97.5405663,43.5739639 C97.568759,43.5418554 97.5828554,43.4995663 97.5789398,43.4557108 C97.5758072,43.4134217 97.5554458,43.3750482 97.5225542,43.3468554 C96.1935783,42.2465542 94.9436988,41.7978193 93.2098434,41.7978193 C89.5471325,41.7978193 87.3582771,44.9068554 87.3582771,47.9117349 L87.3582771,47.9446265 C87.3582771,51.5251084 89.8055663,54.0248675 93.3077349,54.0248675 C95.6915904,54.0248675 97.3400843,52.7890843 97.9376145,52.2573373 C97.9712892,52.2275783 97.9908675,52.1852892 97.9908675,52.1406506 L97.9908675,47.6971566 C97.9908675,47.6102289 97.9203855,47.539747 97.8326747,47.539747" id="Fill-19"></path>
                <path d="M107.045602,41.7978193 C103.310843,41.7978193 101.079699,44.9068554 101.079699,47.9117349 L101.079699,47.9446265 C101.079699,51.4107711 103.630361,54.0248675 107.012711,54.0248675 C110.728675,54.0248675 112.956687,50.9471566 112.978614,47.9548072 C112.994277,47.9156506 112.994277,47.8741446 112.978614,47.834988 C112.956687,44.389988 110.413855,41.7978193 107.045602,41.7978193 M107.045602,52.9363133 C104.375904,52.9363133 102.284157,50.7286627 102.284157,47.9117349 L102.284157,47.8788434 C102.284157,45.0337229 104.317169,42.8879398 107.012711,42.8879398 C109.68241,42.8879398 111.774157,45.0948072 111.774157,47.9117349 L111.774157,47.9446265 C111.774157,50.789747 109.741145,52.9363133 107.045602,52.9363133" id="Fill-21"></path>
                <path d="M124.172006,52.7218916 L117.567849,52.7218916 L117.567849,42.1527349 C117.567849,42.0665904 117.497367,41.9945422 117.409657,41.9945422 L116.554476,41.9945422 C116.466765,41.9945422 116.396283,42.0665904 116.396283,42.1527349 L116.396283,53.6694819 C116.396283,53.7571928 116.466765,53.8276747 116.554476,53.8276747 L124.172006,53.8276747 C124.259717,53.8276747 124.330199,53.7571928 124.330199,53.6694819 L124.330199,52.8800843 C124.330199,52.7923735 124.259717,52.7218916 124.172006,52.7218916" id="Fill-23"></path>
                <path d="M131.394602,41.9950904 L127.560386,41.9950904 C127.473458,41.9950904 127.402193,42.0655723 127.402193,42.1532831 L127.402193,53.6700301 C127.402193,53.757741 127.473458,53.8274398 127.560386,53.8274398 L131.394602,53.8274398 C135.033036,53.8274398 137.672976,51.3402108 137.672976,47.9116566 L137.672976,47.8787651 C137.672976,44.4697892 135.033036,41.9950904 131.394602,41.9950904 M131.394602,52.7224398 L128.573759,52.7224398 L128.573759,43.1008735 L131.394602,43.1008735 C134.334482,43.1008735 136.468518,45.124488 136.468518,47.9116566 L136.468518,47.9445482 C136.468518,50.7567771 134.38147,52.7224398 131.394602,52.7224398" id="Fill-25"></path>
                <path d="M152.959018,51.1387892 C153.52209,50.3611386 154.062452,49.3837892 154.608295,48.1558373 C154.625524,48.1174639 154.626307,48.0728253 154.609861,48.0336687 C154.594199,47.9929458 154.56209,47.9616205 154.522934,47.9459578 L153.749199,47.6327048 C153.669319,47.6005964 153.577693,47.6381867 153.544801,47.7188494 C153.103114,48.7658976 152.652813,49.6218614 152.172753,50.3290301 L149.451367,47.533247 C151.269018,46.8503554 152.153958,45.8479458 152.153958,44.4719819 C152.153958,42.9722831 150.920524,41.7968012 149.346428,41.7968012 C147.614922,41.7968012 146.30944,42.9973434 146.30944,44.5886687 C146.30944,45.5934277 146.736247,46.3154759 147.481006,47.1714398 C145.60462,47.9201145 144.614741,49.111259 144.614741,50.6266205 C144.614741,52.5774036 146.168476,53.9933072 148.310343,53.9933072 C149.785765,53.9933072 151.06462,53.3660181 152.215042,52.0769819 L154.086729,54.0105361 C154.117271,54.0426446 154.158777,54.0583072 154.200283,54.0583072 C154.235524,54.0583072 154.271548,54.0465602 154.301307,54.0222831 L154.975584,53.4631265 C155.009259,53.4349337 155.031187,53.3942108 155.032753,53.3487892 C155.035102,53.3057169 155.01944,53.2626446 154.988114,53.2313193 L152.959018,51.1387892 Z M149.313536,42.8375843 C150.265825,42.8375843 150.982392,43.5541506 150.982392,44.5056566 C150.982392,45.5104157 150.236066,46.2489096 148.702693,46.7587289 C147.768416,45.7555361 147.481006,45.2316205 147.481006,44.554994 C147.481006,43.5596325 148.251608,42.8375843 149.313536,42.8375843 L149.313536,42.8375843 Z M148.326789,52.9360783 C146.8545,52.9360783 145.786307,51.9508976 145.786307,50.5937289 C145.786307,49.4456566 146.648536,48.508247 148.217151,47.946741 L151.451488,51.2899337 C150.485102,52.3824036 149.434139,52.9360783 148.326789,52.9360783 L148.326789,52.9360783 Z" id="Fill-27"></path>
                <path d="M166.214163,41.9950904 L162.379946,41.9950904 C162.292235,41.9950904 162.221753,42.0655723 162.221753,42.1532831 L162.221753,53.6700301 C162.221753,53.757741 162.292235,53.8274398 162.379946,53.8274398 L166.214163,53.8274398 C169.852596,53.8274398 172.492536,51.3402108 172.492536,47.9116566 L172.492536,47.8787651 C172.492536,44.4697892 169.852596,41.9950904 166.214163,41.9950904 M166.214163,52.7224398 L163.393319,52.7224398 L163.393319,43.1008735 L166.214163,43.1008735 C169.154042,43.1008735 171.288078,45.124488 171.288078,47.9116566 L171.288078,47.9445482 C171.288078,50.7567771 169.20103,52.7224398 166.214163,52.7224398" id="Fill-29"></path>
                <path d="M177.038855,41.9950904 L176.182892,41.9950904 C176.095964,41.9950904 176.024699,42.0655723 176.024699,42.1532831 L176.024699,53.6700301 C176.024699,53.757741 176.095964,53.8274398 176.182892,53.8274398 L177.038855,53.8274398 C177.125783,53.8274398 177.197048,53.757741 177.197048,53.6700301 L177.197048,42.1532831 C177.197048,42.0655723 177.125783,41.9950904 177.038855,41.9950904" id="Fill-31"></path>
                <path d="M186.741554,42.004253 C186.715711,41.9494337 186.660108,41.9134096 186.597458,41.9134096 L185.775169,41.9134096 C185.713301,41.9134096 185.656916,41.9494337 185.631855,42.004253 L180.267398,53.604012 C180.24547,53.6525663 180.249386,53.7097349 180.278361,53.7559398 C180.306554,53.8005783 180.357458,53.8287711 180.411494,53.8287711 L181.300349,53.8287711 C181.362217,53.8287711 181.418602,53.792747 181.44288,53.7347952 L182.866614,50.6030482 L189.457458,50.6030482 L190.878843,53.7347952 C190.904687,53.792747 190.961855,53.8287711 191.023723,53.8287711 L191.961133,53.8287711 C192.015169,53.8287711 192.066072,53.8005783 192.095048,53.7559398 C192.124024,53.7097349 192.12794,53.6525663 192.105229,53.604012 L186.741554,42.004253 Z M188.950771,49.514494 L183.371735,49.514494 L186.169867,43.3903976 L188.950771,49.514494 Z" id="Fill-33"></path>
                <path d="M206.076705,41.9950904 L205.270861,41.9950904 C205.218392,41.9950904 205.169837,42.0209337 205.140078,42.0647892 L200.647247,48.6830422 L196.155199,42.0647892 C196.12544,42.0209337 196.076886,41.9950904 196.024416,41.9950904 L195.218572,41.9950904 C195.130861,41.9950904 195.06038,42.0655723 195.06038,42.1532831 L195.06038,53.6700301 C195.06038,53.757741 195.130861,53.8274398 195.218572,53.8274398 L196.041645,53.8274398 C196.127789,53.8274398 196.199054,53.757741 196.199054,53.6700301 L196.199054,44.1761145 L200.46791,50.3871386 C200.496886,50.4302108 200.546223,50.4552711 200.59791,50.4552711 L200.664476,50.4552711 C200.716163,50.4552711 200.764717,50.4302108 200.794476,50.3871386 L205.063331,44.1761145 L205.063331,53.6700301 C205.063331,53.757741 205.133813,53.8274398 205.221524,53.8274398 L206.076705,53.8274398 C206.164416,53.8274398 206.234898,53.757741 206.234898,53.6700301 L206.234898,42.1532831 C206.234898,42.0655723 206.164416,41.9950904 206.076705,41.9950904" id="Fill-35"></path>
                <path d="M215.618783,41.7978193 C211.884807,41.7978193 209.65288,44.9068554 209.65288,47.9117349 L209.65288,47.9446265 C209.65288,51.4107711 212.203542,54.0248675 215.585892,54.0248675 C219.301855,54.0248675 221.529867,50.9471566 221.551795,47.9548072 C221.567458,47.9156506 221.567458,47.8741446 221.551795,47.834988 C221.529867,44.389988 218.986253,41.7978193 215.618783,41.7978193 M215.618783,52.9363133 C212.949084,52.9363133 210.857337,50.7286627 210.857337,47.9117349 L210.857337,47.8788434 C210.857337,45.0337229 212.890349,42.8879398 215.585892,42.8879398 C218.25559,42.8879398 220.347337,45.0948072 220.347337,47.9117349 L220.347337,47.9446265 C220.347337,50.789747 218.314325,52.9363133 215.618783,52.9363133" id="Fill-37"></path>
                <path d="M234.703096,41.9950904 L233.880024,41.9950904 C233.793096,41.9950904 233.721831,42.0655723 233.721831,42.1532831 L233.721831,51.7184639 L226.057313,42.0553916 C226.027554,42.0162349 225.981349,41.9950904 225.933578,41.9950904 L225.127735,41.9950904 C225.040024,41.9950904 224.969542,42.0655723 224.969542,42.1532831 L224.969542,53.6700301 C224.969542,53.757741 225.040024,53.8274398 225.127735,53.8274398 L225.950024,53.8274398 C226.037735,53.8274398 226.108217,53.757741 226.108217,53.6700301 L226.108217,43.8910542 L233.937193,53.7687048 C233.967735,53.8062952 234.013157,53.8274398 234.061711,53.8274398 L234.703096,53.8274398 C234.790024,53.8274398 234.861289,53.757741 234.861289,53.6700301 L234.861289,42.1532831 C234.861289,42.0655723 234.790024,41.9950904 234.703096,41.9950904" id="Fill-39"></path>
                <path d="M242.780639,41.9950904 L238.946422,41.9950904 C238.859494,41.9950904 238.788229,42.0655723 238.788229,42.1532831 L238.788229,53.6700301 C238.788229,53.757741 238.859494,53.8274398 238.946422,53.8274398 L242.780639,53.8274398 C246.419072,53.8274398 249.059795,51.3402108 249.059795,47.9116566 L249.059795,47.8787651 C249.059795,44.4697892 246.419072,41.9950904 242.780639,41.9950904 M242.780639,52.7224398 L239.960578,52.7224398 L239.960578,43.1008735 L242.780639,43.1008735 C245.720518,43.1008735 247.854554,45.124488 247.854554,47.9116566 L247.854554,47.9445482 C247.854554,50.7567771 245.767506,52.7224398 242.780639,52.7224398" id="Fill-41"></path>
                <path d="M256.435024,47.3286928 C253.719904,46.7726687 253.205386,46.0701988 253.205386,44.9667651 L253.205386,44.9330904 C253.205386,43.767006 254.321349,42.9196566 255.860205,42.9196566 C257.156289,42.9196566 258.185325,43.3088735 259.195566,44.1812831 C259.227675,44.210259 259.269964,44.2227892 259.313036,44.2188735 C259.356108,44.2149578 259.395265,44.1938133 259.421892,44.1609217 L259.964602,43.4858614 C259.991229,43.453753 260.003759,43.4114639 259.998277,43.3699578 C259.994361,43.3292349 259.973217,43.2900783 259.940325,43.2642349 C258.672434,42.2453795 257.500084,41.8303193 255.893096,41.8303193 C253.692494,41.8303193 252.033036,43.2008012 252.033036,45.0161024 L252.033036,45.048994 C252.033036,46.8854398 253.194422,47.8682711 256.042675,48.4446566 C258.674783,48.9756205 259.172855,49.6616446 259.172855,50.7408012 L259.172855,50.7744759 C259.172855,52.027488 258.041229,52.9030301 256.419361,52.9030301 C254.827253,52.9030301 253.699542,52.4355 252.397193,51.2333916 C252.365084,51.2051988 252.323578,51.1895361 252.281289,51.1926687 C252.238217,51.1950181 252.198277,51.2138133 252.170867,51.2459217 L251.611711,51.8880904 C251.554542,51.9530904 251.560807,52.0517651 251.625024,52.1097169 C253.084,53.4128494 254.546892,53.9923675 256.370024,53.9923675 C258.710024,53.9923675 260.345205,52.6351988 260.345205,50.692247 L260.345205,50.6585723 C260.345205,48.8832108 259.175205,47.8870663 256.435024,47.3286928" id="Fill-43"></path>
            </g>
        </g>
    </g>
</svg>