<?xml version="1.0" encoding="UTF-8" standalone="no"?>
<svg width="375px" height="667px" viewBox="0 0 375 667" version="1.1" xmlns="http://www.w3.org/2000/svg" xmlns:xlink="http://www.w3.org/1999/xlink">
    <!-- Generator: Sketch 41.2 (35397) - http://www.bohemiancoding.com/sketch -->
    <title>Sign up</title>
    <desc>Created with Sketch.</desc>
    <defs></defs>
    <g id="Page-1" stroke="none" stroke-width="1" fill="none" fill-rule="evenodd">
        <g id="Sign-up">
            <rect id="Rectangle-22-Copy" fill="#722047" x="0" y="0" width="375" height="667"></rect>
            <rect id="Rectangle-23-Copy" fill="#FFFFFF" opacity="0.1" x="0" y="605" width="375" height="72"></rect>
            <text id="Already-have-an-acco" font-family="GothamHTF-Light, Gotham HTF" font-size="14" font-weight="300" letter-spacing="-0.0233333353" fill="#FFFFFF">
                <tspan x="51.8813334" y="644">Already have an account?</tspan>
                <tspan x="229.065333" y="644" font-family="GothamHTF-Medium, Gotham HTF" font-weight="400"> Login here</tspan>
            </text>
            <g id="Group-3-Copy" transform="translate(40.000000, 543.000000)">
                <rect id="Rectangle-Copy-2" fill="#9E9068" x="0" y="0" width="300" height="50" rx="4"></rect>
                <text id="REGISTER" font-family="GothamHTF-Book, Gotham HTF" font-size="18" font-weight="300" letter-spacing="-0.0300000031" fill="#FFFFFF">
                    <tspan x="103.914" y="32">REGISTER</tspan>
                </text>
            </g>
            <g id="Group-Copy" transform="translate(41.000000, 172.000000)"></g>
            <g id="Group-2" transform="translate(40.000000, 135.000000)">
                <g id="Group" transform="translate(0.000000, 16.000000)">
                    <text id="First-Name" font-family="GothamHTF-Light, Gotham HTF" font-size="14" font-weight="300" letter-spacing="-0.0233333353" fill="#FFFFFF">
                        <tspan x="1.5" y="13">First Name</tspan>
                    </text>
                    <path d="M0.5,20.5 L299.501672,20.5" id="Line-Copy-2" stroke="#FFFFFF" stroke-linecap="square"></path>
                </g>
                <g id="Group-Copy-10" transform="translate(1.000000, 0.000000)" font-size="8" font-family="GothamHTF-Light, Gotham HTF" letter-spacing="-0.0133333346" fill="#8C8C8C" font-weight="300">
                    <text id="First-Name">
                        <tspan x="0.5" y="7">First Name</tspan>
                    </text>
                </g>
            </g>
            <g id="Group-Copy-3" transform="translate(40.000000, 237.500000)">
                <text id="Email-Address" font-family=".SFNSDisplay-Light, .SF NS Display" font-size="15" font-weight="300" letter-spacing="-0.0250000022" fill="#8C8C8C">
                    <tspan x="1.57265626" y="15">Email Address</tspan>
                </text>
                <path d="M0.5,22.5 L299.501672,22.5" id="Line-Copy-2" stroke="#FFFFFF" stroke-linecap="square" opacity="0.5"></path>
            </g>
            <g id="Group-Copy-5" transform="translate(40.000000, 328.000000)">
                <text id="Date-of-Birth" font-family="GothamHTF-Light, Gotham HTF" font-size="14" font-weight="300" letter-spacing="-0.0233333353" fill="#8C8C8C">
                    <tspan x="1.5" y="13">Date of Birth</tspan>
                </text>
                <path d="M0.5,20.5 L299.501672,20.5" id="Line-Copy-2" stroke="#FFFFFF" stroke-linecap="square" opacity="0.5"></path>
            </g>
            <g id="Group-Copy-7" transform="translate(40.000000, 416.500000)">
                <text id="Relationship-Status" font-family="GothamHTF-Light, Gotham HTF" font-size="14" font-weight="300" letter-spacing="-0.0233333353" fill="#8C8C8C">
                    <tspan x="1.5" y="13">Relationship Status</tspan>
                </text>
                <path d="M0.5,20.5 L299.501672,20.5" id="Line-Copy-2" stroke="#FFFFFF" stroke-linecap="square" opacity="0.5"></path>
            </g>
            <g id="Group-Copy-2" transform="translate(40.000000, 195.250000)">
                <text id="Last-Name" font-family="GothamHTF-Light, Gotham HTF" font-size="14" font-weight="300" letter-spacing="-0.0233333353" fill="#8C8C8C">
                    <tspan x="1.5" y="13">Last Name</tspan>
                </text>
                <path d="M0.5,20.5 L299.501672,20.5" id="Line-Copy-2" stroke="#FFFFFF" stroke-linecap="square" opacity="0.5"></path>
            </g>
            <g id="Group-Copy-4" transform="translate(40.000000, 283.750000)">
                <text id="Mobile-Number" font-family="GothamHTF-Light, Gotham HTF" font-size="14" font-weight="300" letter-spacing="-0.0233333353" fill="#8C8C8C">
                    <tspan x="1.5" y="13">Mobile Number</tspan>
                </text>
                <path d="M0.5,20.5 L299.501672,20.5" id="Line-Copy-2" stroke="#FFFFFF" stroke-linecap="square" opacity="0.5"></path>
            </g>
            <g id="Group-Copy-6" transform="translate(40.000000, 372.250000)">
                <text id="Gender" font-family="GothamHTF-Light, Gotham HTF" font-size="14" font-weight="300" letter-spacing="-0.0233333353" fill="#8C8C8C">
                    <tspan x="1.5" y="13">Gender</tspan>
                </text>
                <path d="M0.5,20.5 L299.501672,20.5" id="Line-Copy-2" stroke="#FFFFFF" stroke-linecap="square" opacity="0.5"></path>
            </g>
            <g id="Group-Copy-8" transform="translate(40.000000, 460.750000)">
                <text id="Password" font-family="GothamHTF-Light, Gotham HTF" font-size="14" font-weight="300" letter-spacing="-0.0233333353" fill="#8C8C8C">
                    <tspan x="1.5" y="13">Password</tspan>
                </text>
                <path d="M0.5,20.5 L299.501672,20.5" id="Line-Copy-2" stroke="#FFFFFF" stroke-linecap="square" opacity="0.5"></path>
            </g>
            <g id="Group-Copy-9" transform="translate(40.000000, 505.000000)">
                <text id="Confirm-Password" font-family="GothamHTF-Light, Gotham HTF" font-size="14" font-weight="300" letter-spacing="-0.0233333353" fill="#8C8C8C">
                    <tspan x="1.5" y="13">Confirm Password</tspan>
                </text>
                <path d="M0.5,20.5 L299.501672,20.5" id="Line-Copy-2" stroke="#FFFFFF" stroke-linecap="square" opacity="0.5"></path>
            </g>
            <text id="Sign-Up" font-family="GothamHTF-Book, Gotham HTF" font-size="20" font-weight="300" letter-spacing="-0.0333333351" fill="#FEFEFE">
                <tspan x="146.626979" y="119">Sign Up</tspan>
            </text>
            <g id="logo" transform="translate(77.000000, 17.000000)" fill="#FFFFFF">
                <path d="M2.64993976,27.445 C2.64993976,13.7513253 13.7513253,2.64993976 27.445,2.64993976 C41.1393373,2.64993976 52.2400602,13.7513253 52.2400602,27.445 C52.2400602,41.1393373 41.1393373,52.2400602 27.445,52.2400602 C13.7513253,52.2400602 2.64993976,41.1393373 2.64993976,27.445 M27.445,0 C12.2875301,0 0,12.2875301 0,27.445 C0,42.6031325 12.2875301,54.89 27.445,54.89 C42.6024699,54.89 54.89,42.6031325 54.89,27.445 C54.89,12.2875301 42.6024699,0 27.445,0" id="Fill-1"></path>
                <path d="M25.7029578,31.9732229 C25.7029578,32.9353916 26.4828976,33.7153313 27.4463916,33.7153313 C28.4072349,33.7153313 29.1871747,32.9353916 29.1871747,31.9732229 C29.1871747,31.0110542 28.4072349,30.2304518 27.4463916,30.2304518 C26.4828976,30.2304518 25.7029578,31.0110542 25.7029578,31.9732229 L25.7029578,31.9732229 Z M40.4184398,12.1626205 C40.296512,12.1626205 40.1825361,12.210994 40.0983795,12.2938253 L27.4205482,24.9617169 L14.7486807,12.2964759 C14.6645241,12.2123193 14.5492229,12.1626205 14.4259699,12.1626205 L12.6441024,12.1626205 C12.3916325,12.1626205 12.1868735,12.3673795 12.1868735,12.6191867 L12.1868735,42.2708133 C12.1868735,42.5226205 12.3916325,42.7273795 12.6441024,42.7273795 L14.3345241,42.7273795 C14.586994,42.7273795 14.7910904,42.5226205 14.7910904,42.2708133 L14.7910904,16.0006928 L25.5876566,26.7946084 L22.3976566,29.9846084 C24.5472952,29.9846084 26.013741,30.0362952 27.4212108,28.6275 C28.8286807,30.0362952 30.2944639,29.9846084 32.4441024,29.9846084 L29.2534398,26.7946084 L40.0533193,15.9887651 L40.0533193,42.2708133 C40.0533193,42.5226205 40.2580783,42.7273795 40.5105482,42.7273795 L42.2466928,42.7273795 C42.4985,42.7273795 42.703259,42.5226205 42.703259,42.2708133 L42.703259,12.6191867 C42.703259,12.3673795 42.4985,12.1626205 42.2466928,12.1626205 L40.4184398,12.1626205 Z" id="Fill-3"></path>
                <path d="M91.8518554,9.28227711 L90.5404699,9.28227711 C90.4516747,9.28227711 90.3688434,9.32601205 90.3184819,9.39956627 L83.0193855,20.1543855 L75.7196265,9.39956627 C75.6692651,9.32601205 75.5864337,9.28227711 75.4976386,9.28227711 L74.186253,9.28227711 C74.0384819,9.28227711 73.9185422,9.40221687 73.9185422,9.54998795 L73.9185422,28.2857711 C73.9185422,28.4335422 74.0384819,28.5534819 74.186253,28.5534819 L75.5248072,28.5534819 C75.6725783,28.5534819 75.7925181,28.4335422 75.7925181,28.2857711 L75.7925181,12.874506 L82.7178795,22.9507711 C82.768241,23.023 82.8504096,23.0667349 82.9385422,23.0667349 L83.0458916,23.0667349 C83.1340241,23.0667349 83.2161928,23.023 83.2665542,22.9507711 L90.1925783,12.874506 L90.1925783,28.2857711 C90.1925783,28.4335422 90.3125181,28.5534819 90.4602892,28.5534819 L91.8518554,28.5534819 C91.9996265,28.5534819 92.1195663,28.4335422 92.1195663,28.2857711 L92.1195663,9.54998795 C92.1195663,9.40221687 91.9996265,9.28227711 91.8518554,9.28227711" id="Fill-5"></path>
                <path d="M107.456813,9.30361446 C107.413078,9.20885542 107.318319,9.14855422 107.21362,9.14855422 L105.875729,9.14855422 C105.771693,9.14855422 105.676271,9.20885542 105.632536,9.30361446 L96.906753,28.173253 C96.8689819,28.256747 96.8756084,28.3528313 96.9246446,28.4303614 C96.9736807,28.5072289 97.0585,28.5536145 97.1499458,28.5536145 L98.5951867,28.5536145 C98.7005482,28.5536145 98.7959699,28.491988 98.8390422,28.3965663 L101.149705,23.3074096 L111.859464,23.3074096 L114.170127,28.3965663 C114.213861,28.491988 114.309283,28.5536145 114.414645,28.5536145 L115.939404,28.5536145 C116.030849,28.5536145 116.115669,28.5072289 116.164705,28.4303614 C116.214404,28.3528313 116.22103,28.256747 116.182596,28.173253 L107.456813,9.30361446 Z M111.027175,21.5142771 L101.982657,21.5142771 L106.517175,11.5871084 L111.027175,21.5142771 Z" id="Fill-7"></path>
                <path d="M133.630584,26.733512 L122.897633,26.733512 L122.897633,9.54965663 C122.897633,9.40188554 122.777693,9.28194578 122.629259,9.28194578 L121.237693,9.28194578 C121.089922,9.28194578 120.970645,9.40188554 120.970645,9.54965663 L120.970645,28.2861024 C120.970645,28.4338735 121.089922,28.5538133 121.237693,28.5538133 L133.630584,28.5538133 C133.778355,28.5538133 133.897633,28.4338735 133.897633,28.2861024 L133.897633,27.0012229 C133.897633,26.8534518 133.778355,26.733512 133.630584,26.733512" id="Fill-9"></path>
                <path d="M148.036078,9.30361446 C147.992343,9.20885542 147.896922,9.14855422 147.792886,9.14855422 L146.454331,9.14855422 C146.349633,9.14855422 146.254873,9.20885542 146.211139,9.30361446 L137.485355,28.173253 C137.447584,28.256747 137.453548,28.3528313 137.503247,28.4303614 C137.552946,28.5072289 137.637765,28.5536145 137.728548,28.5536145 L139.174452,28.5536145 C139.279151,28.5536145 139.375235,28.491988 139.417645,28.3965663 L141.728307,23.3074096 L152.438729,23.3074096 L154.749392,28.3965663 C154.792464,28.491988 154.887886,28.5536145 154.992584,28.5536145 L156.518669,28.5536145 C156.609452,28.5536145 156.694271,28.5072289 156.744633,28.4303614 C156.793669,28.3528313 156.800295,28.256747 156.761861,28.173253 L148.036078,9.30361446 Z M151.60644,21.5142771 L142.561259,21.5142771 L147.095777,11.5871084 L151.60644,21.5142771 Z" id="Fill-11"></path>
                <path d="M173.196723,18.5959639 C174.547205,17.8842771 175.895036,16.5795181 175.895036,14.2072289 L175.895036,14.1535542 C175.895036,11.1941566 173.404795,9.28174699 169.551482,9.28174699 L161.816361,9.28174699 C161.66859,9.28174699 161.548651,9.40168675 161.548651,9.54945783 L161.548651,28.2859036 C161.548651,28.4343373 161.66859,28.5536145 161.816361,28.5536145 L169.953048,28.5536145 C174.197325,28.5536145 176.939373,26.441747 176.939373,23.1735542 L176.939373,23.1198795 C176.939373,20.9768675 175.649193,19.4236145 173.196723,18.5959639 M170.007386,26.7333133 L163.475639,26.7333133 L163.475639,19.7476506 L169.551482,19.7476506 C173.055578,19.7476506 174.985217,20.9450602 174.985217,23.1198795 L174.985217,23.1735542 C174.985217,25.3695783 173.077446,26.7333133 170.007386,26.7333133 M169.39112,17.9273494 L163.475639,17.9273494 L163.475639,11.1020482 L169.524976,11.1020482 C172.290217,11.1020482 173.94088,12.2928313 173.94088,14.2874096 L173.94088,14.3410843 C173.94088,16.553012 172.197446,17.9273494 169.39112,17.9273494" id="Fill-13"></path>
                <path d="M190.987367,9.30361446 C190.943633,9.20885542 190.848873,9.14855422 190.744837,9.14855422 L189.40562,9.14855422 C189.301584,9.14855422 189.206163,9.20885542 189.16309,9.30361446 L180.437307,28.173253 C180.398873,28.256747 180.404837,28.3528313 180.454536,28.4303614 C180.504235,28.5072289 180.589054,28.5536145 180.679837,28.5536145 L182.125741,28.5536145 C182.23044,28.5536145 182.325861,28.491988 182.369596,28.3965663 L184.679596,23.3074096 L195.390018,23.3074096 L197.700681,28.3965663 C197.743753,28.491988 197.839175,28.5536145 197.944536,28.5536145 L199.469958,28.5536145 C199.560741,28.5536145 199.64556,28.5072289 199.695922,28.4303614 C199.744958,28.3528313 199.751584,28.256747 199.713151,28.173253 L190.987367,9.30361446 Z M194.557729,21.5142771 L185.512548,21.5142771 L190.047729,11.5871084 L194.557729,21.5142771 Z" id="Fill-15"></path>
                <path d="M220.235904,28.1222289 L214.329036,20.4765663 C217.636988,19.8808434 219.595783,17.8325904 219.595783,14.9295181 L219.595783,14.8758434 C219.595783,11.5301205 216.799398,9.28240964 212.636627,9.28240964 L204.767651,9.28240964 C204.620542,9.28240964 204.49994,9.40168675 204.49994,9.54945783 L204.49994,28.2859036 C204.49994,28.4343373 204.620542,28.5536145 204.767651,28.5536145 L206.159217,28.5536145 C206.306988,28.5536145 206.426928,28.4343373 206.426928,28.2859036 L206.426928,20.7913253 L212.15753,20.7913253 L218.045181,28.4489157 C218.096205,28.5151807 218.17506,28.5536145 218.258554,28.5536145 L220.025181,28.5536145 C220.125904,28.5536145 220.22,28.4953012 220.264398,28.4038554 C220.309458,28.3124096 220.298855,28.2030723 220.235904,28.1222289 L220.235904,28.1222289 Z M206.426928,11.1020482 L212.556446,11.1020482 C215.757711,11.1020482 217.668795,12.5327108 217.668795,14.9295181 L217.668795,14.9831928 C217.668795,17.4224096 215.630482,18.9981928 212.476265,18.9981928 L206.426928,18.9981928 L206.426928,11.1020482 Z" id="Fill-17"></path>
                <path d="M82.781494,40.2259398 L78.8281205,40.2259398 C78.7539036,40.2259398 78.6942651,40.2855783 78.6942651,40.3591325 L78.6942651,41.027747 C78.6942651,41.1013012 78.7539036,41.1609398 78.8281205,41.1609398 L81.9518554,41.1609398 L81.9518554,43.7631687 C81.3223373,44.2740723 80.2283012,44.8055181 78.9811928,44.8055181 C76.5631807,44.8055181 74.9383614,43.091241 74.9383614,40.5406988 L74.9383614,40.5128675 C74.9383614,38.1438916 76.6466747,36.2897952 78.8281205,36.2897952 C80.3628193,36.2897952 81.228241,36.8643133 81.8723373,37.4249157 C81.8988434,37.4494337 81.9319759,37.4587108 81.9690843,37.4580482 C82.0048675,37.4553976 82.0373373,37.439494 82.0611928,37.412988 L82.5343253,36.8702771 C82.5581807,36.8431084 82.5701084,36.8073253 82.5667952,36.7702169 C82.5641446,36.7344337 82.5469157,36.7019639 82.5190843,36.6781084 C81.3945663,35.7470843 80.3369759,35.3673855 78.8698675,35.3673855 C75.7706506,35.3673855 73.9185422,37.9981084 73.9185422,40.5406988 L73.9185422,40.5685301 C73.9185422,43.5981687 75.9893253,45.7133494 78.9526988,45.7133494 C80.9698072,45.7133494 82.3646867,44.6676867 82.8702892,44.217747 C82.8987831,44.1925663 82.9153494,44.1567831 82.9153494,44.119012 L82.9153494,40.3591325 C82.9153494,40.2855783 82.8557108,40.2259398 82.781494,40.2259398" id="Fill-19"></path>
                <path d="M90.5770482,35.3673855 C87.4168675,35.3673855 85.5289759,37.9981084 85.5289759,40.5406988 L85.5289759,40.5685301 C85.5289759,43.5014217 87.6872289,45.7133494 90.5492169,45.7133494 C93.693494,45.7133494 95.5787349,43.1091325 95.5972892,40.5771446 C95.6105422,40.544012 95.6105422,40.5088916 95.5972892,40.475759 C95.5787349,37.560759 93.4271084,35.3673855 90.5770482,35.3673855 M90.5770482,44.7922651 C88.3180723,44.7922651 86.5481325,42.924253 86.5481325,40.5406988 L86.5481325,40.5128675 C86.5481325,38.1054578 88.2683735,36.2897952 90.5492169,36.2897952 C92.8081928,36.2897952 94.5781325,38.1571446 94.5781325,40.5406988 L94.5781325,40.5685301 C94.5781325,42.9759398 92.8578916,44.7922651 90.5770482,44.7922651" id="Fill-21"></path>
                <path d="M105.06862,44.6108313 L99.480488,44.6108313 L99.480488,35.6676988 C99.480488,35.5948072 99.4208494,35.5338434 99.3466325,35.5338434 L98.6230181,35.5338434 C98.5488012,35.5338434 98.4891627,35.5948072 98.4891627,35.6676988 L98.4891627,45.4126386 C98.4891627,45.4868554 98.5488012,45.546494 98.6230181,45.546494 L105.06862,45.546494 C105.142837,45.546494 105.202476,45.4868554 105.202476,45.4126386 L105.202476,44.7446867 C105.202476,44.6704699 105.142837,44.6108313 105.06862,44.6108313" id="Fill-23"></path>
                <path d="M111.180048,35.5343072 L107.935711,35.5343072 C107.862157,35.5343072 107.801855,35.5939458 107.801855,35.6681627 L107.801855,45.4131024 C107.801855,45.4873193 107.862157,45.5462952 107.935711,45.5462952 L111.180048,45.5462952 C114.258723,45.5462952 116.492518,43.4417169 116.492518,40.5406325 L116.492518,40.5128012 C116.492518,37.6282831 114.258723,35.5343072 111.180048,35.5343072 M111.180048,44.6112952 L108.793181,44.6112952 L108.793181,36.4699699 L111.180048,36.4699699 C113.667639,36.4699699 115.473361,38.182259 115.473361,40.5406325 L115.473361,40.5684639 C115.473361,42.9480422 113.707398,44.6112952 111.180048,44.6112952" id="Fill-25"></path>
                <path d="M129.426861,43.2712831 C129.903307,42.6132711 130.360536,41.7862831 130.822404,40.747247 C130.836982,40.7147771 130.837645,40.677006 130.823729,40.6438735 C130.810476,40.6094157 130.783307,40.5829096 130.750175,40.5696566 L130.095476,40.3045964 C130.027886,40.2774277 129.950355,40.3092349 129.922524,40.377488 C129.548789,41.2634518 129.167765,41.9877289 128.76156,42.5861024 L126.458849,40.2204398 C127.996861,39.6426084 128.745657,38.7944157 128.745657,37.6301386 C128.745657,36.3611627 127.701982,35.3665241 126.370054,35.3665241 C124.904934,35.3665241 123.800295,36.3823675 123.800295,37.7288735 C123.800295,38.5790542 124.16144,39.1900181 124.79162,39.9142952 C123.20391,40.5477892 122.366319,41.5556807 122.366319,42.8379096 C122.366319,44.4885723 123.681018,45.6866446 125.493367,45.6866446 C126.741801,45.6866446 127.82391,45.1558614 128.797343,44.0651386 L130.381078,45.7012229 C130.406922,45.7283916 130.442042,45.7416446 130.477163,45.7416446 C130.506982,45.7416446 130.537464,45.7317048 130.562645,45.7111627 L131.133187,45.2380301 C131.161681,45.2141747 131.180235,45.1797169 131.18156,45.1412831 C131.183548,45.1048373 131.170295,45.0683916 131.143789,45.0418855 L129.426861,43.2712831 Z M126.342223,36.2471867 C127.148006,36.2471867 127.754331,36.853512 127.754331,37.6586325 C127.754331,38.5088133 127.122825,39.1336928 125.825355,39.5650783 C125.034813,38.7162229 124.79162,38.2729096 124.79162,37.7003795 C124.79162,36.8581506 125.443669,36.2471867 126.342223,36.2471867 L126.342223,36.2471867 Z M125.507283,44.7920663 C124.2615,44.7920663 123.357645,43.9584518 123.357645,42.8100783 C123.357645,41.8386325 124.087223,41.0454398 125.414512,40.5703193 L128.151259,43.3991747 C127.333548,44.3235723 126.444271,44.7920663 125.507283,44.7920663 L125.507283,44.7920663 Z" id="Fill-27"></path>
                <path d="M140.642753,35.5343072 L137.398416,35.5343072 C137.324199,35.5343072 137.26456,35.5939458 137.26456,35.6681627 L137.26456,45.4131024 C137.26456,45.4873193 137.324199,45.5462952 137.398416,45.5462952 L140.642753,45.5462952 C143.721428,45.5462952 145.955223,43.4417169 145.955223,40.5406325 L145.955223,40.5128012 C145.955223,37.6282831 143.721428,35.5343072 140.642753,35.5343072 M140.642753,44.6112952 L138.255886,44.6112952 L138.255886,36.4699699 L140.642753,36.4699699 C143.130343,36.4699699 144.936066,38.182259 144.936066,40.5406325 L144.936066,40.5684639 C144.936066,42.9480422 143.170102,44.6112952 140.642753,44.6112952" id="Fill-29"></path>
                <path d="M149.802108,35.5343072 L149.077831,35.5343072 C149.004277,35.5343072 148.943976,35.5939458 148.943976,35.6681627 L148.943976,45.4131024 C148.943976,45.4873193 149.004277,45.5462952 149.077831,45.5462952 L149.802108,45.5462952 C149.875663,45.5462952 149.935964,45.4873193 149.935964,45.4131024 L149.935964,35.6681627 C149.935964,35.5939458 149.875663,35.5343072 149.802108,35.5343072" id="Fill-31"></path>
                <path d="M158.012084,35.5420602 C157.990217,35.4956747 157.943169,35.4651928 157.890157,35.4651928 L157.194373,35.4651928 C157.142024,35.4651928 157.094313,35.4956747 157.073108,35.5420602 L152.533952,45.357241 C152.515398,45.3983253 152.518711,45.4466988 152.543229,45.4857952 C152.567084,45.5235663 152.610157,45.5474217 152.65588,45.5474217 L153.407988,45.5474217 C153.460337,45.5474217 153.508048,45.5169398 153.52859,45.4679036 L154.733289,42.8179639 L160.310157,42.8179639 L161.512867,45.4679036 C161.534735,45.5169398 161.583108,45.5474217 161.635458,45.5474217 L162.428651,45.5474217 C162.474373,45.5474217 162.517446,45.5235663 162.541964,45.4857952 C162.566482,45.4466988 162.569795,45.3983253 162.550578,45.357241 L158.012084,35.5420602 Z M159.881422,41.8968795 L155.160699,41.8968795 L157.528349,36.7149518 L159.881422,41.8968795 Z" id="Fill-33"></path>
                <path d="M174.372596,35.5343072 L173.690729,35.5343072 C173.646331,35.5343072 173.605247,35.5561747 173.580066,35.5932831 L169.77844,41.1933434 L165.977476,35.5932831 C165.952295,35.5561747 165.911211,35.5343072 165.866813,35.5343072 L165.184946,35.5343072 C165.110729,35.5343072 165.05109,35.5939458 165.05109,35.6681627 L165.05109,45.4131024 C165.05109,45.4873193 165.110729,45.5462952 165.184946,45.5462952 L165.881392,45.5462952 C165.954283,45.5462952 166.014584,45.4873193 166.014584,45.4131024 L166.014584,37.3797892 L169.626693,42.6352711 C169.651211,42.6717169 169.692958,42.6929217 169.736693,42.6929217 L169.793018,42.6929217 C169.836753,42.6929217 169.877837,42.6717169 169.903018,42.6352711 L173.515127,37.3797892 L173.515127,45.4131024 C173.515127,45.4873193 173.574765,45.5462952 173.648982,45.5462952 L174.372596,45.5462952 C174.446813,45.5462952 174.506452,45.4873193 174.506452,45.4131024 L174.506452,35.6681627 C174.506452,35.5939458 174.446813,35.5343072 174.372596,35.5343072" id="Fill-35"></path>
                <path d="M182.446663,35.3673855 C179.287145,35.3673855 177.39859,37.9981084 177.39859,40.5406988 L177.39859,40.5685301 C177.39859,43.5014217 179.556843,45.7133494 182.418831,45.7133494 C185.563108,45.7133494 187.448349,43.1091325 187.466904,40.5771446 C187.480157,40.544012 187.480157,40.5088916 187.466904,40.475759 C187.448349,37.560759 185.29606,35.3673855 182.446663,35.3673855 M182.446663,44.7922651 C180.187687,44.7922651 178.417747,42.924253 178.417747,40.5406988 L178.417747,40.5128675 C178.417747,38.1054578 180.137988,36.2897952 182.418831,36.2897952 C184.677807,36.2897952 186.447747,38.1571446 186.447747,40.5406988 L186.447747,40.5685301 C186.447747,42.9759398 184.727506,44.7922651 182.446663,44.7922651" id="Fill-37"></path>
                <path d="M198.594928,35.5343072 L197.898482,35.5343072 C197.824928,35.5343072 197.764627,35.5939458 197.764627,35.6681627 L197.764627,43.7617771 L191.279265,35.5853313 C191.254084,35.5521988 191.214988,35.5343072 191.174566,35.5343072 L190.492699,35.5343072 C190.418482,35.5343072 190.358843,35.5939458 190.358843,35.6681627 L190.358843,45.4131024 C190.358843,45.4873193 190.418482,45.5462952 190.492699,45.5462952 L191.188482,45.5462952 C191.262699,45.5462952 191.322337,45.4873193 191.322337,45.4131024 L191.322337,37.1385843 L197.946855,45.4965964 C197.972699,45.5284036 198.011133,45.5462952 198.052217,45.5462952 L198.594928,45.5462952 C198.668482,45.5462952 198.728783,45.4873193 198.728783,45.4131024 L198.728783,35.6681627 C198.728783,35.5939458 198.668482,35.5343072 198.594928,35.5343072" id="Fill-39"></path>
                <path d="M205.429771,35.5343072 L202.185434,35.5343072 C202.11188,35.5343072 202.051578,35.5939458 202.051578,35.6681627 L202.051578,45.4131024 C202.051578,45.4873193 202.11188,45.5462952 202.185434,45.5462952 L205.429771,45.5462952 C208.508446,45.5462952 210.742904,43.4417169 210.742904,40.5406325 L210.742904,40.5128012 C210.742904,37.6282831 208.508446,35.5343072 205.429771,35.5343072 M205.429771,44.6112952 L203.043566,44.6112952 L203.043566,36.4699699 L205.429771,36.4699699 C207.917361,36.4699699 209.723084,38.182259 209.723084,40.5406325 L209.723084,40.5684639 C209.723084,42.9480422 207.95712,44.6112952 205.429771,44.6112952" id="Fill-41"></path>
                <path d="M216.983482,40.0473554 C214.686072,39.5768735 214.250711,38.9824759 214.250711,38.0488012 L214.250711,38.0203072 C214.250711,37.0336205 215.194988,36.3166325 216.497096,36.3166325 C217.593783,36.3166325 218.464506,36.6459699 219.319325,37.3841627 C219.346494,37.4086807 219.382277,37.4192831 219.418723,37.4159699 C219.455169,37.4126566 219.488301,37.3947651 219.510831,37.3669337 L219.970048,36.7957289 C219.992578,36.7685602 220.003181,36.7327771 219.998542,36.6976566 C219.995229,36.6631988 219.977337,36.6300663 219.949506,36.6081988 C218.876675,35.7460904 217.884687,35.3948855 216.524928,35.3948855 C214.66288,35.3948855 213.258723,36.5545241 213.258723,38.0905482 L213.258723,38.1183795 C213.258723,39.6722952 214.241434,40.5039217 216.651494,40.9916325 C218.878663,41.4409096 219.300108,42.0213916 219.300108,42.9345241 L219.300108,42.9630181 C219.300108,44.023259 218.342578,44.7641024 216.970229,44.7641024 C215.62306,44.7641024 214.668843,44.3685 213.566855,43.3513313 C213.539687,43.3274759 213.504566,43.3142229 213.468783,43.3168735 C213.432337,43.3188614 213.398542,43.3347651 213.375349,43.3619337 L212.902217,43.9053072 C212.853843,43.9603072 212.859145,44.0438012 212.913482,44.0928373 C214.148,45.195488 215.385831,45.6858494 216.928482,45.6858494 C218.908482,45.6858494 220.292096,44.5374759 220.292096,42.8934398 L220.292096,42.8649458 C220.292096,41.3627169 219.302096,40.5198253 216.983482,40.0473554" id="Fill-43"></path>
            </g>
        </g>
    </g>
</svg>